<svg width="68" height="28" viewBox="0 0 68 28" fill="none" xmlns="http://www.w3.org/2000/svg">
<path d="M6 0H2C0.89543 0 0 0.89543 0 2V18C0 19.1046 0.89543 20 2 20H6C7.10457 20 8 19.1046 8 18V2C8 0.89543 7.10457 0 6 0Z" fill="#11AB75"/>
<path d="M18 8H14C12.8954 8 12 8.89543 12 10V26C12 27.1046 12.8954 28 14 28H18C19.1046 28 20 27.1046 20 26V10C20 8.89543 19.1046 8 18 8Z" fill="#3CB955"/>
<path d="M30 0H26C24.8954 0 24 0.89543 24 2V18C24 19.1046 24.8954 20 26 20H30C31.1046 20 32 19.1046 32 18V2C32 0.89543 31.1046 0 30 0Z" fill="#71C92D"/>
<path d="M42 8H38C36.8954 8 36 8.89543 36 10V26C36 27.1046 36.8954 28 38 28H42C43.1046 28 44 27.1046 44 26V10C44 8.89543 43.1046 8 42 8Z" fill="#BCDF10"/>
<path d="M54 0H50C48.8954 0 48 0.89543 48 2V18C48 19.1046 48.8954 20 50 20H54C55.1046 20 56 19.1046 56 18V2C56 0.89543 55.1046 0 54 0Z" fill="#F4D30F"/>
<path d="M66 8H62C60.8954 8 60 8.89543 60 10V26C60 27.1046 60.8954 28 62 28H66C67.1046 28 68 27.1046 68 26V10C68 8.89543 67.1046 8 66 8Z" fill="#D02F19"/>
</svg>
